<?xml version="1.0" encoding="UTF-8"?><svg id="Layer_2" xmlns="http://www.w3.org/2000/svg" viewBox="0 0 344.23 126.07"><defs><style>.cls-1{fill:#2d8cb5;stroke-width:0px;}</style></defs><g id="Layer_1-2"><path class="cls-1" d="M28.51,63.04h0c0,19.07,15.46,34.53,34.53,34.53h63.04v28.51h-63.04C28.22,126.07,0,97.85,0,63.04h0C0,28.22,28.22,0,63.04,0h63.04v28.51h-63.04c-19.07,0-34.53,15.46-34.53,34.53Z"/><rect class="cls-1" x="157.86" width="28.51" height="126.07"/><path class="cls-1" d="M246.66,38.64h0c0,5.6,4.54,10.14,10.14,10.14h55.36c17.71,0,32.07,14.36,32.07,32.07v13.15c0,17.71-14.36,32.07-32.07,32.07h-88.53v-28.51h81.95c5.6,0,10.14-4.54,10.14-10.14h0c0-5.6-4.54-10.14-10.14-10.14h-56.46c-17.1,0-30.97-13.87-30.97-30.97v-15.08c0-17.26,13.99-31.24,31.24-31.24h89.34v28.51h-81.94c-5.6,0-10.14,4.54-10.14,10.14Z"/></g></svg>